<svg xmlns="http://www.w3.org/2000/svg" xmlns:xlink="http://www.w3.org/1999/xlink" viewBox="0,0,256,256" width="28px" height="28px">
<g fill="none" fill-rule="nonzero" stroke="none" stroke-width="none" stroke-linecap="butt" stroke-linejoin="none" stroke-miterlimit="10" stroke-dasharray="" stroke-dashoffset="0" font-family="none" font-weight="none" font-size="none" text-anchor="none" style="mix-blend-mode: normal">
<path transform="scale(5.33333,5.33333)" d="M44,24c0,11.045 -8.955,20 -20,20c-11.045,0 -20,-8.955 -20,-20c0,-11.045 8.955,-20 20,-20c11.045,0 20,8.955 20,20z" id="strokeMainSVG" fill="transparent" stroke="#33679d" stroke-width="3" stroke-linejoin="round">
</path>
<g transform="scale(5.33333,5.33333)" stroke="none" stroke-width="1" stroke-linejoin="miter">
<path d="M44,24c0,11.045 -8.955,20 -20,20c-11.045,0 -20,-8.955 -20,-20c0,-11.045 8.955,-20 20,-20c11.045,0 20,8.955 20,20z" fill-opacity="0" fill="#ffffff"></path>
<path d="M34.586,14.586l-13.57,13.586l-5.602,-5.586l-2.828,2.828l8.434,8.414l16.395,-16.414z" fill="#33679D"></path>
</g>
</g></svg>